<svg xmlns="http://www.w3.org/2000/svg" version="1.1" xmlns:xlink="http://www.w3.org/1999/xlink" width="100%"
    height="100%" x="0" y="0" viewBox="0 0 64 64" style="enable-background:new 0 0 512 512" xml:space="preserve"
    class="">
    <g>
        <g fill-rule="evenodd">
            <path fill="#2d0f1e"
                d="M48 64H16A16 16 0 0 1 0 48V16A16 16 0 0 1 16 0h32a16 16 0 0 1 16 16v32a16 16 0 0 1-16 16"
                data-original="#2d0f1e" class=""></path>
            <path fill="#501432"
                d="M30 18h18A9 9 0 0 0 48.92.046C48.614.029 48.311 0 48 0H16A16 16 0 0 0 0 16v32a30 30 0 0 1 30-30"
                data-original="#501432" class=""></path>
            <path d="M48 32a16 16 0 1 0 16 16V16a16 16 0 0 1-16 16" fill="#000000" data-original="#000000"></path>
            <path fill="#fe2c55"
                d="M34 14a2 2 0 0 1 2-2h4.229a2 2 0 0 1 1.961 1.609A7.956 7.956 0 0 0 50 20a2 2 0 0 1 2 2v4a2 2 0 0 1-2 2 15.917 15.917 0 0 1-8-2.143V42a14 14 0 1 1-14-14 2 2 0 0 1 2 2v4a2 2 0 0 1-2 2 6 6 0 1 0 6 6z"
                data-original="#fe2c55"></path>
            <path fill="#25f4ee"
                d="M32 12a2 2 0 0 1 2-2h4.229a2 2 0 0 1 1.961 1.609A7.956 7.956 0 0 0 48 18a2 2 0 0 1 2 2v4a2 2 0 0 1-2 2 15.917 15.917 0 0 1-8-2.143V40a14 14 0 1 1-14-14 2 2 0 0 1 2 2v4a2 2 0 0 1-2 2 6 6 0 1 0 6 6z"
                data-original="#25f4ee"></path>
            <path fill="#ffffff"
                d="M22.876 45.124A6 6 0 0 0 34 42V14a2 2 0 0 1 2-2h4.229l.049.001a7.938 7.938 0 0 0 3.173 4.577A7.959 7.959 0 0 0 50 20v4a2 2 0 0 1-2 2 15.917 15.917 0 0 1-8-2.143V40a14 14 0 0 1-22.849 10.849A14 14 0 0 1 28 28v4a2 2 0 0 1-2 2 6 6 0 0 0-3.124 11.124z"
                data-original="#ffffff"></path>
        </g>
    </g>
</svg>