<svg width="809" height="354" viewBox="0 0 809 354" fill="none" xmlns="http://www.w3.org/2000/svg">
<g clip-path="url(#clip0_279_5)">
<path d="M412.482 224H385.209L415.936 130.909H450.482L481.209 224H453.936L433.573 156.545H432.845L412.482 224ZM407.391 187.273H458.664V206.182H407.391V187.273ZM502.975 224V130.909H543.157C550.066 130.909 556.111 132.167 561.293 134.682C566.475 137.197 570.505 140.818 573.384 145.545C576.263 150.273 577.702 155.939 577.702 162.545C577.702 169.212 576.217 174.833 573.248 179.409C570.308 183.985 566.172 187.439 560.839 189.773C555.536 192.106 549.339 193.273 542.248 193.273H518.248V173.636H537.157C540.127 173.636 542.657 173.273 544.748 172.545C546.869 171.788 548.49 170.591 549.611 168.955C550.763 167.318 551.339 165.182 551.339 162.545C551.339 159.879 550.763 157.712 549.611 156.045C548.49 154.348 546.869 153.106 544.748 152.318C542.657 151.5 540.127 151.091 537.157 151.091H528.248V224H502.975ZM557.52 181.273L580.793 224H553.339L530.611 181.273H557.52ZM656.366 130.909H681.639V190.545C681.639 197.636 679.942 203.773 676.548 208.955C673.184 214.106 668.487 218.091 662.457 220.909C656.427 223.697 649.427 225.091 641.457 225.091C633.427 225.091 626.396 223.697 620.366 220.909C614.336 218.091 609.639 214.106 606.275 208.955C602.942 203.773 601.275 197.636 601.275 190.545V130.909H626.548V188.364C626.548 191.242 627.184 193.818 628.457 196.091C629.73 198.333 631.487 200.091 633.73 201.364C636.002 202.636 638.578 203.273 641.457 203.273C644.366 203.273 646.942 202.636 649.184 201.364C651.427 200.091 653.184 198.333 654.457 196.091C655.73 193.818 656.366 191.242 656.366 188.364V130.909ZM706.45 130.909H737.905L759.541 183.636H760.632L782.268 130.909H813.723V224H788.995V170.182H788.268L767.541 223.273H752.632L731.905 169.818H731.177V224H706.45V130.909Z" fill="#FAAE13"/>
<path fill-rule="evenodd" clip-rule="evenodd" d="M318.2 168.6C347.7 182.3 378 193.9 409.2 203.4C411.9 204.3 414.5 205.4 417.1 206.5C417.043 206.726 416.987 206.857 416.948 206.945C416.919 207.013 416.9 207.057 416.9 207.1C416.867 207.067 416.833 207.022 416.8 206.978C416.733 206.889 416.667 206.8 416.6 206.8C366.4 204 318.4 191.6 272.2 172.2C243.2 160 215.6 145.1 189.5 127.6C188.814 127.164 188.206 126.61 187.603 126.062C187.239 125.731 186.876 125.401 186.5 125.1H186.4C185.572 124.745 185.198 124.425 184.721 124.016C184.392 123.733 184.013 123.408 183.4 123C169.3 113.8 156.2 103.2 143.2 92.6C136.055 86.7477 129.28 80.4787 122.498 74.2026C119.313 71.2558 116.127 68.3075 112.9 65.4C118 83.3 125.1 100.3 135.6 115.8C136.8 117.5 137.9 119.4 138.9 121.3C139.036 121.571 139.245 121.828 139.452 122.081C140.008 122.763 140.548 123.425 139.6 124.3C138.562 125.165 137.599 124.384 136.841 123.77C136.722 123.673 136.608 123.581 136.5 123.5C132.434 120.564 128.337 117.679 124.242 114.796C115.648 108.746 107.063 102.702 98.8 96.2C68.8 72.8 41.7 46.3 15.6 18.8C12.1516 15.16 8.86636 11.3978 5.58798 7.64333C3.73256 5.5185 1.87934 3.39619 0 1.3C0.782645 -0.0304961 1.87156 0.109087 2.83528 0.232622C3.10292 0.26693 3.36091 0.3 3.6 0.3C21.85 0.25 40.1 0.25 58.35 0.25C76.6 0.25 94.85 0.25 113.1 0.2C116.7 0.2 118.7 1.3 120.6 4.4C124.299 10.457 128.098 16.4644 131.894 22.4693C137.438 31.2362 142.977 39.9977 148.2 48.9C151.949 55.2352 155.922 61.4403 159.893 67.6435C165.136 75.8342 170.377 84.0214 175.1 92.5C177.303 96.5003 179.842 100.332 182.386 104.172C184.23 106.955 186.077 109.742 187.8 112.6C190.2 115.1 191.8 118 193.1 121.1L193.2 121.3C194.642 123.319 196.176 125.337 197.98 127.711L198.2 128C198.944 126.606 199.668 125.259 200.376 123.943C201.954 121.012 203.451 118.23 204.9 115.4C224 78.5 243 41.7 261.9 4.8C263.8 1.1 266 0 270 0C309 0.3 348 0.4 387 0.5C392.7 0.5 392.7 0.6 390 5.5C388.062 9.04606 386.125 12.5931 384.186 16.1407C366.121 49.2096 348.023 82.3364 329.6 115.3C328.383 117.5 327.147 119.687 325.911 121.873C322.372 128.131 318.839 134.378 315.8 140.9C314.6 143.6 312.8 144.7 309.6 144.2C288.7 141.1 268.9 135.1 250.7 124.4C249.5 123.7 248.4 123.1 247.2 122.6C246.867 122.467 246.533 122.511 246.2 122.556C246.033 122.578 245.867 122.6 245.7 122.6C247.394 126.286 248.79 127.292 257.304 133.431L257.4 133.5C276.5 147.3 296.9 158.7 318.2 168.6ZM192.091 344.023C191.794 343.444 191.499 342.869 191.2 342.3L111.6 199.5C122.7 204.7 133.6 209.3 144.6 213.7C146.6 214.6 162 219.1 167.6 219.9C168.116 219.957 168.623 220.064 169.141 220.173C170.431 220.443 171.788 220.728 173.5 220.3C168.4 215.9 149.7 207.7 149.7 207.7C133.5 199.9 118.8 189.5 104.6 178.6C70.8 152.7 41.2 122.5 11.6 92.2C11.3387 91.9387 11.2054 91.592 11.0607 91.2157C10.984 91.016 10.904 90.808 10.8 90.6C12.2581 90.6 13.1862 91.4246 14.1266 92.2601C14.4116 92.5133 14.6977 92.7674 15 93C47.3 117.4 81.9 138.1 117.7 156.9C127.558 162.208 137.655 167.04 147.751 171.872C154.963 175.324 162.175 178.775 169.3 182.4L169.8 182.5C169.856 182.5 170.791 182.914 172.367 183.611C179.274 186.668 198.482 195.169 209.8 198.1C207.748 195.514 205.679 192.943 203.609 190.371C193.673 178.026 183.728 165.669 175.7 151.6C177.407 151.367 178.572 152.158 179.662 152.897C179.977 153.111 180.286 153.321 180.6 153.5C195.6 162 210.9 169.6 226.3 177.2C243.2 185.6 260.9 191.9 278.7 197.9C282.1 199 283.3 200 281.2 203.7C258.823 244.094 236.581 284.556 214.363 324.975C209.575 333.685 204.787 342.394 200 351.1C199.637 351.735 199.193 352.369 198.591 353.227C198.529 353.316 198.465 353.406 198.4 353.5C195.509 350.694 193.775 347.309 192.091 344.023Z" fill="url(#paint0_linear_279_5)"/>
</g>
<defs>
<linearGradient id="paint0_linear_279_5" x1="-7.5" y1="-7.46042e-06" x2="445" y2="232" gradientUnits="userSpaceOnUse">
<stop stop-color="#F77E21"/>
<stop offset="0.59375" stop-color="#FAC213"/>
<stop offset="0.786458" stop-color="#FAC213"/>
</linearGradient>
<clipPath id="clip0_279_5">
<rect width="809" height="354" fill="white"/>
</clipPath>
</defs>
</svg>
